<mxfile host="app.diagrams.net" agent="Mozilla/5.0 (Windows NT 10.0; Win64; x64) AppleWebKit/537.36 (KHTML, like Gecko) Chrome/127.0.0.0 Safari/537.36" version="24.7.7">
  <diagram id="R2lEEEUBdFMjLlhIrx00" name="Page-1">
    <mxGraphModel dx="880" dy="408" grid="1" gridSize="10" guides="1" tooltips="1" connect="1" arrows="1" fold="1" page="1" pageScale="1" pageWidth="850" pageHeight="1100" math="0" shadow="0" extFonts="Permanent Marker^https://fonts.googleapis.com/css?family=Permanent+Marker">
      <root>
        <mxCell id="0" />
        <mxCell id="1" parent="0" />
        <mxCell id="oXu8ETeMwTCI8__euXl_-1" value="&lt;font style=&quot;vertical-align: inherit;&quot;&gt;&lt;font style=&quot;vertical-align: inherit;&quot;&gt;Empleado&lt;/font&gt;&lt;/font&gt;" style="swimlane;childLayout=stackLayout;horizontal=1;startSize=39;horizontalStack=0;rounded=1;fontSize=14;fontStyle=0;strokeWidth=2;resizeParent=0;resizeLast=1;shadow=0;dashed=0;align=center;arcSize=4;whiteSpace=wrap;html=1;" vertex="1" parent="1">
          <mxGeometry x="220" y="141" width="160" height="125" as="geometry" />
        </mxCell>
        <mxCell id="oXu8ETeMwTCI8__euXl_-10" value="&lt;font style=&quot;vertical-align: inherit;&quot;&gt;Nombre&lt;/font&gt;&lt;div&gt;NÂ°Telefono&lt;br&gt;&lt;div&gt;&lt;font style=&quot;vertical-align: inherit;&quot;&gt;DNI&lt;/font&gt;&lt;/div&gt;&lt;div&gt;&lt;font style=&quot;vertical-align: inherit;&quot;&gt;Sueldo&lt;/font&gt;&lt;/div&gt;&lt;div&gt;&lt;font style=&quot;vertical-align: inherit;&quot;&gt;Cuid&lt;/font&gt;&lt;/div&gt;&lt;/div&gt;" style="text;html=1;align=left;verticalAlign=middle;resizable=0;points=[];autosize=1;strokeColor=none;fillColor=none;" vertex="1" parent="oXu8ETeMwTCI8__euXl_-1">
          <mxGeometry y="39" width="160" height="86" as="geometry" />
        </mxCell>
        <mxCell id="oXu8ETeMwTCI8__euXl_-3" value="&lt;font style=&quot;vertical-align: inherit;&quot;&gt;&lt;font style=&quot;vertical-align: inherit;&quot;&gt;Efectivos&lt;/font&gt;&lt;/font&gt;" style="swimlane;childLayout=stackLayout;horizontal=1;startSize=50;horizontalStack=0;rounded=1;fontSize=14;fontStyle=0;strokeWidth=2;resizeParent=0;resizeLast=1;shadow=0;dashed=0;align=center;arcSize=4;whiteSpace=wrap;html=1;" vertex="1" parent="1">
          <mxGeometry x="220" y="280" width="160" height="120" as="geometry" />
        </mxCell>
        <mxCell id="oXu8ETeMwTCI8__euXl_-4" value="Cantidad de obras asignadas&lt;div&gt;Trabajos realizados&lt;/div&gt;" style="align=left;strokeColor=none;fillColor=none;spacingLeft=4;fontSize=12;verticalAlign=top;resizable=0;rotatable=0;part=1;html=1;" vertex="1" parent="oXu8ETeMwTCI8__euXl_-3">
          <mxGeometry y="50" width="160" height="70" as="geometry" />
        </mxCell>
        <mxCell id="oXu8ETeMwTCI8__euXl_-5" value="&lt;font style=&quot;vertical-align: inherit;&quot;&gt;&lt;font style=&quot;vertical-align: inherit;&quot;&gt;Encargado&lt;/font&gt;&lt;/font&gt;" style="swimlane;childLayout=stackLayout;horizontal=1;startSize=50;horizontalStack=0;rounded=1;fontSize=14;fontStyle=0;strokeWidth=2;resizeParent=0;resizeLast=1;shadow=0;dashed=0;align=center;arcSize=4;whiteSpace=wrap;html=1;" vertex="1" parent="1">
          <mxGeometry x="40" y="280" width="160" height="120" as="geometry" />
        </mxCell>
        <mxCell id="oXu8ETeMwTCI8__euXl_-16" value="Cantidad de empleados&amp;nbsp;&lt;div&gt;asignados&lt;/div&gt;" style="text;html=1;align=left;verticalAlign=middle;resizable=0;points=[];autosize=1;strokeColor=none;fillColor=none;" vertex="1" parent="oXu8ETeMwTCI8__euXl_-5">
          <mxGeometry y="50" width="160" height="70" as="geometry" />
        </mxCell>
        <mxCell id="oXu8ETeMwTCI8__euXl_-7" value="&lt;font style=&quot;vertical-align: inherit;&quot;&gt;&lt;font style=&quot;vertical-align: inherit;&quot;&gt;Obra&lt;/font&gt;&lt;/font&gt;" style="swimlane;childLayout=stackLayout;horizontal=1;startSize=50;horizontalStack=0;rounded=1;fontSize=14;fontStyle=0;strokeWidth=2;resizeParent=0;resizeLast=1;shadow=0;dashed=0;align=center;arcSize=4;whiteSpace=wrap;html=1;" vertex="1" parent="1">
          <mxGeometry x="400" y="140" width="160" height="140" as="geometry" />
        </mxCell>
        <mxCell id="oXu8ETeMwTCI8__euXl_-8" value="Ubicacion&lt;div&gt;Tipo de obra&lt;/div&gt;&lt;div&gt;Materiales&lt;/div&gt;&lt;div&gt;Cantidad de trabajadores&amp;nbsp;&lt;/div&gt;&lt;div&gt;asignados&lt;/div&gt;" style="align=left;strokeColor=none;fillColor=none;spacingLeft=4;fontSize=12;verticalAlign=top;resizable=0;rotatable=0;part=1;html=1;" vertex="1" parent="oXu8ETeMwTCI8__euXl_-7">
          <mxGeometry y="50" width="160" height="90" as="geometry" />
        </mxCell>
        <mxCell id="oXu8ETeMwTCI8__euXl_-11" value="Sectores" style="swimlane;childLayout=stackLayout;horizontal=1;startSize=50;horizontalStack=0;rounded=1;fontSize=14;fontStyle=0;strokeWidth=2;resizeParent=0;resizeLast=1;shadow=0;dashed=0;align=center;arcSize=4;whiteSpace=wrap;html=1;" vertex="1" parent="1">
          <mxGeometry x="40" y="140" width="160" height="120" as="geometry" />
        </mxCell>
        <mxCell id="oXu8ETeMwTCI8__euXl_-12" value="&lt;div&gt;Nombre del sector&lt;/div&gt;&lt;div&gt;Funcion del sector&lt;/div&gt;" style="align=left;strokeColor=none;fillColor=none;spacingLeft=4;fontSize=12;verticalAlign=top;resizable=0;rotatable=0;part=1;html=1;" vertex="1" parent="oXu8ETeMwTCI8__euXl_-11">
          <mxGeometry y="50" width="160" height="70" as="geometry" />
        </mxCell>
        <mxCell id="oXu8ETeMwTCI8__euXl_-13" value="&lt;div&gt;Grupo de&lt;/div&gt;Actividades" style="swimlane;childLayout=stackLayout;horizontal=1;startSize=50;horizontalStack=0;rounded=1;fontSize=14;fontStyle=0;strokeWidth=2;resizeParent=0;resizeLast=1;shadow=0;dashed=0;align=center;arcSize=4;whiteSpace=wrap;html=1;" vertex="1" parent="1">
          <mxGeometry x="580" y="140" width="160" height="120" as="geometry" />
        </mxCell>
        <mxCell id="oXu8ETeMwTCI8__euXl_-14" value="Actividades a realizar&lt;div&gt;Actividades realizadas&amp;nbsp;&lt;/div&gt;&lt;div&gt;Actividades realizando&lt;/div&gt;&lt;div&gt;Fecha limite&lt;/div&gt;" style="align=left;strokeColor=none;fillColor=none;spacingLeft=4;fontSize=12;verticalAlign=top;resizable=0;rotatable=0;part=1;html=1;" vertex="1" parent="oXu8ETeMwTCI8__euXl_-13">
          <mxGeometry y="50" width="160" height="70" as="geometry" />
        </mxCell>
        <mxCell id="oXu8ETeMwTCI8__euXl_-17" value="Sectores" style="whiteSpace=wrap;html=1;align=center;" vertex="1" parent="1">
          <mxGeometry x="60" y="535" width="100" height="40" as="geometry" />
        </mxCell>
        <mxCell id="oXu8ETeMwTCI8__euXl_-18" value="Encargado" style="whiteSpace=wrap;html=1;align=center;" vertex="1" parent="1">
          <mxGeometry x="275" y="675" width="100" height="40" as="geometry" />
        </mxCell>
        <mxCell id="oXu8ETeMwTCI8__euXl_-19" value="Efectivos" style="whiteSpace=wrap;html=1;align=center;" vertex="1" parent="1">
          <mxGeometry x="425" y="675" width="100" height="40" as="geometry" />
        </mxCell>
        <mxCell id="oXu8ETeMwTCI8__euXl_-20" value="Empleados" style="whiteSpace=wrap;html=1;align=center;" vertex="1" parent="1">
          <mxGeometry x="355" y="535" width="100" height="40" as="geometry" />
        </mxCell>
        <mxCell id="oXu8ETeMwTCI8__euXl_-21" value="Obra" style="whiteSpace=wrap;html=1;align=center;" vertex="1" parent="1">
          <mxGeometry x="555" y="455" width="100" height="40" as="geometry" />
        </mxCell>
        <mxCell id="oXu8ETeMwTCI8__euXl_-22" value="&lt;div&gt;Grupo de&lt;/div&gt;Actividades" style="whiteSpace=wrap;html=1;align=center;" vertex="1" parent="1">
          <mxGeometry x="235" y="455" width="100" height="40" as="geometry" />
        </mxCell>
        <mxCell id="oXu8ETeMwTCI8__euXl_-26" value="" style="endArrow=none;html=1;rounded=0;exitX=0.5;exitY=1;exitDx=0;exitDy=0;entryX=0.5;entryY=0;entryDx=0;entryDy=0;" edge="1" parent="1" source="oXu8ETeMwTCI8__euXl_-20" target="oXu8ETeMwTCI8__euXl_-19">
          <mxGeometry relative="1" as="geometry">
            <mxPoint x="355" y="605" as="sourcePoint" />
            <mxPoint x="515" y="605" as="targetPoint" />
          </mxGeometry>
        </mxCell>
        <mxCell id="oXu8ETeMwTCI8__euXl_-27" value="" style="endArrow=none;html=1;rounded=0;entryX=0.5;entryY=1;entryDx=0;entryDy=0;exitX=0.5;exitY=0;exitDx=0;exitDy=0;" edge="1" parent="1" source="oXu8ETeMwTCI8__euXl_-18" target="oXu8ETeMwTCI8__euXl_-20">
          <mxGeometry relative="1" as="geometry">
            <mxPoint x="265" y="625" as="sourcePoint" />
            <mxPoint x="425" y="625" as="targetPoint" />
          </mxGeometry>
        </mxCell>
        <mxCell id="oXu8ETeMwTCI8__euXl_-28" value="" style="endArrow=ERone;html=1;rounded=0;exitX=1;exitY=0.5;exitDx=0;exitDy=0;entryX=0;entryY=0.5;entryDx=0;entryDy=0;endFill=0;" edge="1" parent="1" source="oXu8ETeMwTCI8__euXl_-40" target="oXu8ETeMwTCI8__euXl_-18">
          <mxGeometry relative="1" as="geometry">
            <mxPoint x="105" y="645" as="sourcePoint" />
            <mxPoint x="265" y="645" as="targetPoint" />
            <Array as="points">
              <mxPoint x="245" y="695" />
            </Array>
          </mxGeometry>
        </mxCell>
        <mxCell id="oXu8ETeMwTCI8__euXl_-29" value="" style="endArrow=ERone;html=1;rounded=0;exitX=0;exitY=0.5;exitDx=0;exitDy=0;entryX=0;entryY=0;entryDx=0;entryDy=0;endFill=0;" edge="1" parent="1" source="oXu8ETeMwTCI8__euXl_-36" target="oXu8ETeMwTCI8__euXl_-18">
          <mxGeometry relative="1" as="geometry">
            <mxPoint x="175" y="615" as="sourcePoint" />
            <mxPoint x="335" y="615" as="targetPoint" />
            <Array as="points">
              <mxPoint x="205" y="555" />
              <mxPoint x="205" y="630" />
            </Array>
          </mxGeometry>
        </mxCell>
        <mxCell id="oXu8ETeMwTCI8__euXl_-30" value="" style="endArrow=ERone;html=1;rounded=0;exitX=1;exitY=0.5;exitDx=0;exitDy=0;entryX=0;entryY=0.5;entryDx=0;entryDy=0;endFill=0;" edge="1" parent="1" source="oXu8ETeMwTCI8__euXl_-43" target="oXu8ETeMwTCI8__euXl_-22">
          <mxGeometry relative="1" as="geometry">
            <mxPoint x="55" y="435" as="sourcePoint" />
            <mxPoint x="215" y="435" as="targetPoint" />
            <Array as="points" />
          </mxGeometry>
        </mxCell>
        <mxCell id="oXu8ETeMwTCI8__euXl_-31" value="" style="endArrow=ERzeroToMany;html=1;rounded=0;exitX=1;exitY=0.5;exitDx=0;exitDy=0;entryX=0;entryY=0.5;entryDx=0;entryDy=0;endFill=0;" edge="1" parent="1" source="oXu8ETeMwTCI8__euXl_-47" target="oXu8ETeMwTCI8__euXl_-21">
          <mxGeometry relative="1" as="geometry">
            <mxPoint x="355" y="425" as="sourcePoint" />
            <mxPoint x="515" y="425" as="targetPoint" />
          </mxGeometry>
        </mxCell>
        <mxCell id="oXu8ETeMwTCI8__euXl_-32" value="" style="endArrow=ERzeroToMany;html=1;rounded=0;exitX=1;exitY=0.5;exitDx=0;exitDy=0;entryX=0.5;entryY=1;entryDx=0;entryDy=0;endFill=0;" edge="1" parent="1" source="oXu8ETeMwTCI8__euXl_-50" target="oXu8ETeMwTCI8__euXl_-21">
          <mxGeometry relative="1" as="geometry">
            <mxPoint x="475" y="555" as="sourcePoint" />
            <mxPoint x="635" y="555" as="targetPoint" />
            <Array as="points">
              <mxPoint x="605" y="555" />
            </Array>
          </mxGeometry>
        </mxCell>
        <mxCell id="oXu8ETeMwTCI8__euXl_-33" value="" style="endArrow=ERzeroToMany;html=1;rounded=0;entryX=1;entryY=0.5;entryDx=0;entryDy=0;exitX=1.05;exitY=0.492;exitDx=0;exitDy=0;exitPerimeter=0;endFill=0;" edge="1" parent="1" source="oXu8ETeMwTCI8__euXl_-53" target="oXu8ETeMwTCI8__euXl_-21">
          <mxGeometry relative="1" as="geometry">
            <mxPoint x="715" y="475" as="sourcePoint" />
            <mxPoint x="735" y="695" as="targetPoint" />
            <Array as="points">
              <mxPoint x="715" y="695" />
              <mxPoint x="715" y="475" />
            </Array>
          </mxGeometry>
        </mxCell>
        <mxCell id="oXu8ETeMwTCI8__euXl_-34" value="" style="curved=1;endArrow=none;html=1;rounded=0;endFill=0;" edge="1" parent="1">
          <mxGeometry width="50" height="50" relative="1" as="geometry">
            <mxPoint x="295" y="615" as="sourcePoint" />
            <mxPoint x="495" y="605" as="targetPoint" />
            <Array as="points">
              <mxPoint x="395" y="645" />
              <mxPoint x="465" y="635" />
            </Array>
          </mxGeometry>
        </mxCell>
        <mxCell id="oXu8ETeMwTCI8__euXl_-35" value="1" style="text;html=1;align=center;verticalAlign=middle;whiteSpace=wrap;rounded=0;" vertex="1" parent="1">
          <mxGeometry x="435" y="595" width="60" height="30" as="geometry" />
        </mxCell>
        <mxCell id="oXu8ETeMwTCI8__euXl_-37" value="" style="endArrow=none;html=1;rounded=0;exitX=0;exitY=0.5;exitDx=0;exitDy=0;entryX=1;entryY=0.5;entryDx=0;entryDy=0;startArrow=ERone;startFill=0;" edge="1" parent="1" source="oXu8ETeMwTCI8__euXl_-20" target="oXu8ETeMwTCI8__euXl_-36">
          <mxGeometry relative="1" as="geometry">
            <mxPoint x="355" y="555" as="sourcePoint" />
            <mxPoint x="275" y="675" as="targetPoint" />
            <Array as="points" />
          </mxGeometry>
        </mxCell>
        <mxCell id="oXu8ETeMwTCI8__euXl_-36" value="1:N" style="shape=rhombus;perimeter=rhombusPerimeter;whiteSpace=wrap;html=1;align=center;" vertex="1" parent="1">
          <mxGeometry x="245" y="535" width="50" height="40" as="geometry" />
        </mxCell>
        <mxCell id="oXu8ETeMwTCI8__euXl_-39" value="Dependen" style="text;html=1;align=center;verticalAlign=middle;whiteSpace=wrap;rounded=0;" vertex="1" parent="1">
          <mxGeometry x="275" y="515" width="60" height="30" as="geometry" />
        </mxCell>
        <mxCell id="oXu8ETeMwTCI8__euXl_-41" value="" style="endArrow=none;html=1;rounded=0;exitX=0.5;exitY=1;exitDx=0;exitDy=0;entryX=0;entryY=0.5;entryDx=0;entryDy=0;startArrow=ERone;startFill=0;" edge="1" parent="1" source="oXu8ETeMwTCI8__euXl_-17" target="oXu8ETeMwTCI8__euXl_-40">
          <mxGeometry relative="1" as="geometry">
            <mxPoint x="110" y="575" as="sourcePoint" />
            <mxPoint x="275" y="695" as="targetPoint" />
            <Array as="points">
              <mxPoint x="110" y="695" />
            </Array>
          </mxGeometry>
        </mxCell>
        <mxCell id="oXu8ETeMwTCI8__euXl_-40" value="1:1" style="shape=rhombus;perimeter=rhombusPerimeter;whiteSpace=wrap;html=1;align=center;" vertex="1" parent="1">
          <mxGeometry x="135" y="675" width="70" height="40" as="geometry" />
        </mxCell>
        <mxCell id="oXu8ETeMwTCI8__euXl_-44" value="" style="endArrow=none;html=1;rounded=0;exitX=0.5;exitY=0;exitDx=0;exitDy=0;entryX=0;entryY=0.5;entryDx=0;entryDy=0;startArrow=ERone;startFill=0;" edge="1" parent="1" source="oXu8ETeMwTCI8__euXl_-17" target="oXu8ETeMwTCI8__euXl_-43">
          <mxGeometry relative="1" as="geometry">
            <mxPoint x="110" y="535" as="sourcePoint" />
            <mxPoint x="235" y="475" as="targetPoint" />
            <Array as="points">
              <mxPoint x="110" y="475" />
            </Array>
          </mxGeometry>
        </mxCell>
        <mxCell id="oXu8ETeMwTCI8__euXl_-43" value="1:1" style="shape=rhombus;perimeter=rhombusPerimeter;whiteSpace=wrap;html=1;align=center;" vertex="1" parent="1">
          <mxGeometry x="125" y="455" width="65" height="40" as="geometry" />
        </mxCell>
        <mxCell id="oXu8ETeMwTCI8__euXl_-45" value="Tiene" style="text;html=1;align=center;verticalAlign=middle;whiteSpace=wrap;rounded=0;" vertex="1" parent="1">
          <mxGeometry x="165" y="705" width="60" height="30" as="geometry" />
        </mxCell>
        <mxCell id="oXu8ETeMwTCI8__euXl_-46" value="Corresponde" style="text;html=1;align=center;verticalAlign=middle;whiteSpace=wrap;rounded=0;" vertex="1" parent="1">
          <mxGeometry x="155" y="430" width="60" height="30" as="geometry" />
        </mxCell>
        <mxCell id="oXu8ETeMwTCI8__euXl_-48" value="" style="endArrow=none;html=1;rounded=0;exitX=1;exitY=0.5;exitDx=0;exitDy=0;entryX=0;entryY=0.5;entryDx=0;entryDy=0;startArrow=ERone;startFill=0;" edge="1" parent="1" source="oXu8ETeMwTCI8__euXl_-22" target="oXu8ETeMwTCI8__euXl_-47">
          <mxGeometry relative="1" as="geometry">
            <mxPoint x="335" y="475" as="sourcePoint" />
            <mxPoint x="555" y="475" as="targetPoint" />
          </mxGeometry>
        </mxCell>
        <mxCell id="oXu8ETeMwTCI8__euXl_-47" value="1:N" style="shape=rhombus;perimeter=rhombusPerimeter;whiteSpace=wrap;html=1;align=center;" vertex="1" parent="1">
          <mxGeometry x="405" y="455" width="70" height="40" as="geometry" />
        </mxCell>
        <mxCell id="oXu8ETeMwTCI8__euXl_-49" value="Afectan" style="text;html=1;align=center;verticalAlign=middle;whiteSpace=wrap;rounded=0;" vertex="1" parent="1">
          <mxGeometry x="435" y="430" width="60" height="30" as="geometry" />
        </mxCell>
        <mxCell id="oXu8ETeMwTCI8__euXl_-51" value="" style="endArrow=none;html=1;rounded=0;exitX=1;exitY=0.5;exitDx=0;exitDy=0;entryX=0;entryY=0.5;entryDx=0;entryDy=0;startArrow=ERone;startFill=0;" edge="1" parent="1" source="oXu8ETeMwTCI8__euXl_-20" target="oXu8ETeMwTCI8__euXl_-50">
          <mxGeometry relative="1" as="geometry">
            <mxPoint x="455" y="555" as="sourcePoint" />
            <mxPoint x="605" y="495" as="targetPoint" />
            <Array as="points" />
          </mxGeometry>
        </mxCell>
        <mxCell id="oXu8ETeMwTCI8__euXl_-50" value="N:1" style="shape=rhombus;perimeter=rhombusPerimeter;whiteSpace=wrap;html=1;align=center;" vertex="1" parent="1">
          <mxGeometry x="505" y="535" width="70" height="40" as="geometry" />
        </mxCell>
        <mxCell id="oXu8ETeMwTCI8__euXl_-54" value="" style="endArrow=none;html=1;rounded=0;exitX=1;exitY=0.5;exitDx=0;exitDy=0;entryX=0;entryY=0.5;entryDx=0;entryDy=0;startArrow=ERone;startFill=0;" edge="1" parent="1" source="oXu8ETeMwTCI8__euXl_-19" target="oXu8ETeMwTCI8__euXl_-53">
          <mxGeometry relative="1" as="geometry">
            <mxPoint x="525" y="695" as="sourcePoint" />
            <mxPoint x="655" y="475" as="targetPoint" />
            <Array as="points" />
          </mxGeometry>
        </mxCell>
        <mxCell id="oXu8ETeMwTCI8__euXl_-53" value="N:M" style="shape=rhombus;perimeter=rhombusPerimeter;whiteSpace=wrap;html=1;align=center;" vertex="1" parent="1">
          <mxGeometry x="595" y="675" width="80" height="40" as="geometry" />
        </mxCell>
        <mxCell id="oXu8ETeMwTCI8__euXl_-55" value="Tiene" style="text;html=1;align=center;verticalAlign=middle;whiteSpace=wrap;rounded=0;" vertex="1" parent="1">
          <mxGeometry x="525" y="515" width="60" height="30" as="geometry" />
        </mxCell>
        <mxCell id="oXu8ETeMwTCI8__euXl_-56" value="tiene" style="text;html=1;align=center;verticalAlign=middle;whiteSpace=wrap;rounded=0;" vertex="1" parent="1">
          <mxGeometry x="615" y="645" width="60" height="30" as="geometry" />
        </mxCell>
      </root>
    </mxGraphModel>
  </diagram>
</mxfile>
